<?xml version="1.0" standalone="no"?>
<!DOCTYPE svg PUBLIC "-//W3C//DTD SVG 20010904//EN"
 "http://www.w3.org/TR/2001/REC-SVG-20010904/DTD/svg10.dtd">
<svg version="1.0" xmlns="http://www.w3.org/2000/svg"
 width="260.000000pt" height="260.000000pt" viewBox="0 0 260.000000 260.000000"
 preserveAspectRatio="xMidYMid meet">
<metadata>
Created by potrace 1.11, written by Peter Selinger 2001-2013
</metadata>
<g transform="translate(0.000000,260.000000) scale(0.100000,-0.100000)"
fill="#000000" stroke="none">
<path d="M420 1405 l0 -995 308 0 c312 1 416 8 491 34 40 13 45 13 77 -6 77
-45 246 -74 343 -59 l53 8 167 -98 c91 -54 171 -99 176 -99 11 1 145 220 145
237 0 6 -21 24 -47 39 -27 15 -65 38 -85 51 l-37 23 34 57 c71 122 70 106 70
808 0 630 0 630 -23 689 -59 157 -161 250 -319 291 -80 21 -290 20 -368 -1
-83 -23 -120 -24 -188 -2 -53 16 -98 18 -428 18 l-369 0 0 -995z m599 611 c12
-11 25 -35 31 -55 6 -22 10 -246 10 -574 l0 -539 -29 -29 c-27 -26 -36 -29
-95 -29 l-66 0 0 626 0 626 64 -4 c45 -3 71 -10 85 -22z m618 -31 c11 -8 26
-34 32 -59 14 -58 15 -970 1 -1047 -15 -82 -62 -116 -119 -86 l-23 12 1 590
c1 455 4 591 14 597 20 13 71 9 94 -7z"/>
</g>
</svg>
