<?xml version="1.0" standalone="no"?>
<!DOCTYPE svg PUBLIC "-//W3C//DTD SVG 20010904//EN"
 "http://www.w3.org/TR/2001/REC-SVG-20010904/DTD/svg10.dtd">
<svg version="1.0" xmlns="http://www.w3.org/2000/svg"
 width="768.000000pt" height="768.000000pt" viewBox="0 0 768.000000 768.000000"
 preserveAspectRatio="xMidYMid meet">
<metadata>
Created by potrace 1.11, written by Peter Selinger 2001-2013
</metadata>
<g transform="translate(0.000000,768.000000) scale(0.100000,-0.100000)"
fill="#000000" stroke="none">
<path d="M0 3840 l0 -3840 2740 0 2740 0 0 1071 0 1070 -60 -89 c-71 -107
-185 -216 -264 -255 -78 -39 -172 -57 -291 -57 -120 0 -206 19 -300 65 -207
103 -369 292 -449 527 -50 146 -101 410 -138 708 -18 149 -18 1317 0 1485 45
413 99 717 156 885 51 149 106 240 211 346 164 166 329 227 547 203 141 -16
231 -50 354 -137 105 -74 156 -130 239 -264 l75 -122 0 202 0 202 450 0 450 0
0 -2920 0 -2920 610 0 610 0 0 3840 0 3840 -1975 0 -1975 0 0 -2905 0 -2905
-450 0 -450 0 0 197 0 196 -71 -114 c-80 -129 -143 -198 -244 -268 -93 -64
-138 -86 -226 -111 -173 -48 -335 -34 -489 41 -68 34 -101 59 -175 133 -214
216 -282 439 -371 1221 -21 186 -29 850 -15 1220 18 482 98 910 209 1132 83
163 262 332 427 403 126 54 338 64 472 22 63 -20 163 -77 163 -92 0 -5 9 -11
19 -15 25 -8 117 -120 175 -215 l46 -74 0 1067 0 1067 -1375 0 -1375 0 0
-3840z"/>
<path d="M2384 4937 c-94 -45 -141 -133 -166 -307 -8 -60 -12 -307 -13 -835 0
-677 2 -758 17 -830 23 -102 69 -196 115 -234 65 -54 169 -59 232 -13 37 26
118 165 141 240 38 122 42 218 37 932 -4 773 -3 754 -81 917 -53 109 -91 141
-177 149 -43 4 -64 0 -105 -19z"/>
<path d="M5127 4916 c-85 -31 -131 -95 -170 -234 -21 -75 -21 -97 -25 -772 -4
-849 5 -1005 63 -1120 65 -129 220 -177 319 -99 58 45 118 177 144 313 15 81
17 171 17 791 0 626 -2 708 -18 780 -29 133 -118 300 -177 330 -43 22 -109 27
-153 11z"/>
</g>
</svg>
